<?xml version="1.0" standalone="no"?>
<!DOCTYPE svg PUBLIC "-//W3C//DTD SVG 20010904//EN"
 "http://www.w3.org/TR/2001/REC-SVG-20010904/DTD/svg10.dtd">
<svg version="1.0" xmlns="http://www.w3.org/2000/svg"
 width="400.000000pt" height="400.000000pt" viewBox="0 0 400.000000 400.000000"
 preserveAspectRatio="xMidYMid meet">
<metadata>
Created by potrace 1.11, written by Peter Selinger 2001-2013
</metadata>
<g transform="translate(0.000000,400.000000) scale(0.100000,-0.100000)"
fill="#000000" stroke="none">
<path d="M1447 2552 c-86 -3 -88 -3 -81 -25 4 -12 11 -23 15 -25 5 -2 9 -9 9
-15 0 -6 6 -18 14 -26 7 -9 28 -43 46 -76 18 -33 43 -78 56 -100 13 -22 29
-51 36 -65 7 -14 15 -27 19 -30 3 -3 16 -25 30 -50 13 -25 29 -48 34 -52 6 -4
6 -8 1 -8 -5 0 -2 -8 6 -17 8 -10 18 -25 21 -33 4 -8 18 -33 32 -55 13 -22 34
-58 46 -80 12 -22 43 -77 70 -121 27 -45 49 -87 49 -93 0 -6 4 -11 9 -11 5 0
15 -16 22 -35 7 -19 16 -35 20 -35 4 0 9 -6 11 -12 5 -20 82 -148 88 -148 4 0
17 19 30 43 13 23 26 44 29 47 4 3 12 16 18 30 7 14 26 48 43 75 16 28 33 56
36 64 9 17 101 176 125 216 10 17 22 37 26 45 3 8 15 26 25 39 10 13 15 27 12
32 -3 5 2 12 10 15 9 3 16 12 16 19 0 7 9 24 21 39 11 14 17 26 12 26 -4 0 -3
4 2 8 6 4 21 27 34 52 14 25 27 47 30 50 3 3 14 21 25 40 48 90 98 179 128
228 11 18 18 35 15 38 -6 6 -1042 11 -1190 6z m943 -63 c0 -4 -6 -14 -14 -22
-8 -8 -22 -29 -30 -48 -9 -19 -24 -47 -35 -64 -45 -73 -61 -102 -72 -125 -5
-13 -13 -27 -17 -30 -4 -3 -13 -16 -20 -30 -28 -58 -75 -136 -86 -142 -6 -4
-7 -8 -2 -8 5 0 2 -8 -6 -17 -9 -10 -17 -25 -20 -33 -3 -10 -14 -1 -32 29 -15
24 -24 46 -19 50 10 8 39 58 54 94 6 15 15 27 19 27 4 0 10 10 14 23 3 12 15
32 26 45 11 12 18 22 14 22 -4 0 -1 8 7 18 25 30 80 134 75 140 -3 2 -174 4
-383 5 -208 1 -377 5 -375 10 1 4 -7 16 -18 27 -12 12 -18 25 -15 29 6 11 935
11 935 0z m153 -8 c-7 -17 -34 -62 -43 -71 -3 -3 -20 -34 -39 -70 -19 -36 -37
-67 -40 -70 -3 -3 -17 -26 -31 -52 -13 -27 -28 -48 -33 -48 -4 0 -5 -4 -2 -10
3 -5 2 -10 -2 -10 -5 0 -14 -12 -21 -27 -22 -49 -45 -88 -56 -95 -6 -4 -8 -8
-4 -8 4 0 -11 -30 -34 -67 -23 -38 -57 -97 -76 -133 -20 -36 -38 -67 -41 -70
-4 -3 -12 -17 -18 -32 -7 -16 -17 -28 -23 -28 -6 0 -16 12 -23 28 -6 15 -17
33 -24 40 -7 7 -16 24 -19 38 -3 13 -10 24 -14 24 -4 0 -14 15 -21 33 -7 17
-19 38 -26 45 -7 7 -13 20 -13 28 0 8 -4 14 -9 14 -5 0 -13 10 -17 23 -3 12
-12 29 -19 37 -8 8 -15 22 -17 30 -2 8 -6 17 -9 20 -9 8 -79 127 -79 135 0 3
-7 13 -15 21 -23 23 -18 30 18 29 62 -3 68 -5 77 -27 6 -13 21 -41 35 -63 14
-22 33 -56 42 -75 9 -19 23 -41 30 -48 7 -7 13 -20 13 -28 0 -8 4 -14 8 -14 4
0 20 -25 36 -55 47 -93 40 -98 161 120 62 111 140 240 150 247 5 4 6 8 2 8 -5
0 1 13 12 29 12 16 21 34 21 40 0 6 5 11 11 11 5 0 7 5 4 10 -3 6 -2 10 2 10
8 0 23 24 43 71 9 23 17 26 60 26 41 1 48 -2 43 -16z m-401 -144 c-8 -18 -20
-35 -25 -39 -6 -3 -105 -6 -220 -6 -130 0 -213 -4 -219 -10 -7 -7 -4 -19 11
-38 11 -15 21 -30 21 -35 0 -4 14 -28 30 -52 17 -25 30 -50 30 -56 0 -6 5 -11
11 -11 5 0 8 -4 4 -9 -3 -5 -1 -12 4 -16 5 -3 16 -18 24 -33 7 -15 23 -43 34
-62 41 -70 166 -286 184 -317 18 -32 18 -33 -2 -68 -12 -19 -25 -35 -29 -35
-4 0 -15 15 -25 33 -9 17 -26 48 -38 68 -75 126 -87 148 -87 158 0 6 -4 11 -9
11 -5 0 -15 16 -21 35 -6 19 -15 35 -20 35 -5 0 -14 16 -21 35 -7 19 -17 35
-21 35 -4 0 -8 5 -8 12 0 6 -6 19 -14 27 -8 9 -16 23 -18 31 -2 8 -6 17 -9 20
-12 11 -79 128 -79 139 0 6 -4 11 -10 11 -5 0 -10 5 -10 11 0 6 -9 23 -19 38
-11 15 -21 34 -23 42 -2 8 -5 16 -8 19 -3 3 -13 17 -23 32 l-17 27 319 0 318
-1 -15 -31z m-70 -110 c2 -12 -65 -127 -74 -127 -5 0 -8 6 -8 14 0 8 -4 16 -9
18 -5 2 -20 26 -35 55 l-26 52 75 -2 c41 -1 76 -6 77 -10z"/>
</g>
</svg>
